<svg xmlns="http://www.w3.org/2000/svg" viewBox="0 0 64 64" role="img" aria-labelledby="title">
  <title id="title">Gestor de Correos</title>
  <defs>
    <linearGradient id="frame" x1="10" y1="8" x2="54" y2="58" gradientUnits="userSpaceOnUse">
      <stop stop-color="#4a9eff"/>
      <stop offset="1" stop-color="#a78bfa"/>
    </linearGradient>
  </defs>
  <path fill="#151927" stroke="url(#frame)" stroke-width="4" d="M32 4 56 18v28L32 60 8 46V18z"/>
  <path fill="#e8eaf0" d="M15 17h34a3 3 0 0 1 3 3v17a3 3 0 0 1-3 3H15a3 3 0 0 1-3-3V20a3 3 0 0 1 3-3Z"/>
  <path fill="none" stroke="#4a9eff" stroke-linecap="round" stroke-linejoin="round" stroke-width="4" d="m14 21 18 13 18-13"/>
  <path fill="#20263a" stroke="#a78bfa" stroke-width="2" d="M17 37h30a3 3 0 0 1 3 3v8a3 3 0 0 1-3 3H17a3 3 0 0 1-3-3v-8a3 3 0 0 1 3-3Z"/>
  <circle cx="21" cy="44" r="3" fill="#34d399"/>
  <path stroke="#818898" stroke-linecap="round" stroke-width="2" d="M29 42h14M29 46h10"/>
</svg>
